<?xml version="1.0" standalone="no"?>
<!DOCTYPE svg PUBLIC "-//W3C//DTD SVG 20010904//EN"
 "http://www.w3.org/TR/2001/REC-SVG-20010904/DTD/svg10.dtd">
<svg version="1.0" xmlns="http://www.w3.org/2000/svg"
 width="400.000000pt" height="86.000000pt" viewBox="0 0 400.000000 86.000000"
 preserveAspectRatio="xMidYMid meet">

<g transform="translate(0.000000,86.000000) scale(0.100000,-0.100000)"
fill="#000000" stroke="none">
<path d="M70 828 c0 -18 18 -204 40 -412 22 -209 40 -388 40 -398 0 -16 10
-18 105 -18 l105 0 1 28 c0 15 10 115 23 222 l22 195 23 -222 24 -223 98 0
c89 0 99 2 99 18 0 10 18 189 40 398 22 208 40 394 40 412 l0 32 -69 0 -68 0
-6 -42 c-3 -24 -14 -134 -23 -245 -10 -111 -19 -201 -20 -200 -1 1 -12 101
-24 222 -11 121 -23 230 -26 243 -4 21 -9 22 -89 22 -61 0 -85 -4 -86 -12 -5
-88 -47 -449 -52 -438 -3 8 -13 103 -22 210 -9 107 -18 205 -21 218 -4 20 -10
22 -79 22 l-75 0 0 -32z"/>
<path d="M886 833 c-25 -121 -135 -816 -131 -824 5 -7 144 -14 146 -6 0 1 6
36 12 77 l12 75 65 0 65 0 10 -75 10 -75 74 -3 c41 -2 78 1 82 5 5 5 -23 195
-61 423 -38 228 -70 418 -70 423 0 4 -47 7 -104 7 l-104 0 -6 -27z m123 -368
c7 -49 15 -107 18 -127 l6 -38 -42 0 c-22 0 -41 3 -41 8 -1 32 35 260 41 255
3 -5 12 -48 18 -98z"/>
<path d="M1370 837 c-58 -39 -75 -79 -75 -182 0 -118 14 -147 131 -260 55 -54
100 -107 109 -129 31 -74 -5 -143 -61 -117 -20 9 -23 19 -26 68 l-3 58 -77 3
-78 3 0 -58 c0 -107 37 -180 107 -209 53 -23 171 -18 217 9 60 34 90 98 90
197 0 105 -29 162 -129 259 -114 111 -125 126 -125 175 0 50 13 66 56 66 39 0
44 -6 53 -68 l6 -47 75 0 75 0 -3 65 c-4 77 -32 134 -81 167 -30 20 -46 23
-131 23 -84 0 -101 -3 -130 -23z"/>
<path d="M1795 847 c-3 -6 -4 -199 -3 -427 l3 -415 75 0 75 0 3 183 2 182 60
0 60 0 2 -182 3 -183 75 0 75 0 3 428 2 428 -77 -3 -78 -3 -3 -167 -2 -168
-60 0 -60 0 0 170 0 170 -75 0 c-51 0 -77 -4 -80 -13z"/>
<path d="M2342 433 l3 -428 75 0 75 0 3 177 2 177 83 3 82 3 3 73 3 72 -86 0
-85 0 0 100 0 99 108 3 107 3 0 70 0 70 -188 3 -187 2 2 -427z"/>
<path d="M2792 433 l3 -428 185 0 185 0 3 72 3 73 -111 0 -110 0 0 355 0 355
-80 0 -80 0 2 -427z"/>
<path d="M3242 433 l3 -428 75 0 75 0 3 428 2 427 -80 0 -80 0 2 -427z"/>
<path d="M3480 845 c0 -8 32 -102 70 -208 l71 -194 -76 -209 c-42 -114 -73
-214 -70 -221 3 -10 24 -13 76 -11 l72 3 33 95 c59 176 50 173 98 30 l43 -125
80 -3 c59 -2 82 1 85 10 3 7 -29 107 -72 222 l-77 209 73 200 c41 110 71 204
68 208 -3 5 -38 9 -77 9 l-72 0 -41 -118 -41 -117 -39 118 -38 117 -83 0 c-67
0 -83 -3 -83 -15z"/>
</g>
</svg>
